<svg width="254" height="32" viewBox="0 0 254 32" fill="none" xmlns="http://www.w3.org/2000/svg">
<g clip-path="url(#clip0_6034_3063)">
<path d="M74.2563 31.3039H64.5928L66.3498 2.31836H78.4176L82.024 17.0662H82.3477L85.9542 2.31836H98.022L99.779 31.3039H90.1155L89.5607 17.2517H89.237L85.723 31.3039H78.6488L75.0885 17.2517H74.8112L74.2563 31.3039Z" fill="white"/>
<path d="M103.226 31.3044V9.27536L112.474 8.11594V31.3044H103.226ZM103.735 6.63189C103.057 6.10628 102.718 5.14783 102.718 3.75652C102.718 2.36522 103.057 1.3913 103.735 0.834783C104.444 0.278261 105.816 0 107.85 0C109.915 0 111.287 0.278261 111.965 0.834783C112.674 1.3913 113.029 2.36522 113.029 3.75652C113.029 5.14783 112.674 6.10628 111.965 6.63189C111.287 7.15749 109.915 7.42028 107.85 7.42028C105.816 7.42028 104.444 7.15749 103.735 6.63189Z" fill="white"/>
<path d="M121.712 8.11655L124.023 10.4354C126.89 8.42574 129.972 7.4209 133.27 7.4209C135.429 7.4209 137.123 7.90014 138.356 8.85859C139.59 9.78612 140.207 11.0847 140.207 12.7542V31.305H130.958V15.0731H129.525C128.477 15.0731 127.676 15.1968 127.122 15.4441C126.598 15.6606 126.335 16.1243 126.335 16.8354V31.305H117.088V8.11655H121.712Z" fill="white"/>
<path d="M144.586 31.3044V9.27536L153.833 8.11594V31.3044H144.586ZM145.094 6.63189C144.417 6.10628 144.077 5.14783 144.077 3.75652C144.077 2.36522 144.417 1.3913 145.094 0.834783C145.804 0.278261 147.175 0 149.21 0C151.275 0 152.647 0.278261 153.325 0.834783C154.033 1.3913 154.388 2.36522 154.388 3.75652C154.388 5.14783 154.033 6.10628 153.325 6.63189C152.647 7.15749 151.275 7.42028 149.21 7.42028C147.175 7.42028 145.804 7.15749 145.094 6.63189Z" fill="white"/>
<path d="M169.084 6.16811V8.11594H171.858V14.145H169.084V31.3044H159.835V14.145H157.523V8.11594H159.835L160.159 5.33333C160.591 1.77777 163.303 0 168.297 0C169.592 0 171.287 0.15459 173.383 0.463767L172.874 6.53913L169.084 6.16811Z" fill="white"/>
<path d="M176.509 28.9861C174.598 26.9456 173.643 23.8538 173.643 19.7108C173.643 15.5678 174.598 12.4914 176.509 10.4818C178.451 8.44119 181.58 7.4209 185.896 7.4209C190.211 7.4209 193.325 8.44119 195.235 10.4818C197.177 12.4914 198.148 15.5678 198.148 19.7108C198.148 23.8538 197.177 26.9456 195.235 28.9861C193.325 30.9958 190.211 32.0006 185.896 32.0006C181.58 32.0006 178.451 30.9958 176.509 28.9861ZM183.584 16.1397V25.2297H185.017C186.127 25.2297 186.928 25.1214 187.421 24.905C187.945 24.6576 188.208 24.1166 188.208 23.2817V14.1919H186.775C185.664 14.1919 184.848 14.3156 184.324 14.563C183.831 14.7793 183.584 15.305 183.584 16.1397Z" fill="white"/>
<path d="M211.088 0.463867V24.6726C212.074 24.8581 212.829 24.9663 213.353 24.9971L212.937 31.8146C208.992 31.8146 206.387 31.5827 205.123 31.119C203.551 30.5315 202.581 29.7895 202.21 28.8929C201.964 28.3363 201.841 27.6871 201.841 26.9451V1.15952L211.088 0.463867Z" fill="white"/>
<path d="M216.109 31.3044V9.27536L225.356 8.11594V31.3044H216.109ZM216.618 6.63189C215.939 6.10628 215.601 5.14783 215.601 3.75652C215.601 2.36522 215.939 1.3913 216.618 0.834783C217.326 0.278261 218.698 0 220.732 0C222.797 0 224.169 0.278261 224.848 0.834783C225.557 1.3913 225.91 2.36522 225.91 3.75652C225.91 5.14783 225.557 6.10628 224.848 6.63189C224.169 7.15749 222.797 7.42028 220.732 7.42028C218.698 7.42028 217.326 7.15749 216.618 6.63189Z" fill="white"/>
<path d="M231.914 28.9861C230.002 26.9456 229.046 23.8538 229.046 19.7108C229.046 15.5678 230.002 12.4914 231.914 10.4818C233.855 8.44119 236.984 7.4209 241.299 7.4209C245.615 7.4209 248.728 8.44119 250.638 10.4818C252.581 12.4914 253.551 15.5678 253.551 19.7108C253.551 23.8538 252.581 26.9456 250.638 28.9861C248.728 30.9958 245.615 32.0006 241.299 32.0006C236.984 32.0006 233.855 30.9958 231.914 28.9861ZM238.987 16.1397V25.2297H240.421C241.53 25.2297 242.331 25.1214 242.824 24.905C243.348 24.6576 243.611 24.1166 243.611 23.2817V14.1919H242.178C241.067 14.1919 240.251 14.3156 239.727 14.563C239.234 14.7793 238.987 15.305 238.987 16.1397Z" fill="white"/>
<path d="M23.2719 0C30.2591 0 31.8715 5.68155 26.8728 12.6898L13.0996 32H0.449219L23.2719 0ZM38.9613 0C45.9478 0.000302705 47.5595 5.68175 42.5608 12.6898L28.7876 32H16.1373L38.9613 0ZM49.3815 13.2644C54.5393 13.2645 58.7197 17.4588 58.7199 22.6322C58.7199 27.8057 54.5393 31.9999 49.3815 32C44.2237 32 40.042 27.8058 40.042 22.6322C40.0422 17.4587 44.2237 13.2644 49.3815 13.2644Z" fill="#BFF747"/>
</g>
<defs>
<clipPath id="clip0_6034_3063">
<rect width="254" height="32" fill="white"/>
</clipPath>
</defs>
</svg>
