<svg width="40" height="41" viewBox="0 0 40 41" fill="none" xmlns="http://www.w3.org/2000/svg">
<path d="M21.0996 32.5325L22.7009 37.4988C22.8634 38.0238 23.5134 38.1863 23.9009 37.7988C26.3134 35.3863 30.3134 31.3238 30.5884 29.0988C30.7184 28.1463 30.3709 26.8788 29.9821 25.7588C27.6446 28.135 24.7334 30.4425 21.0996 32.5325Z" fill="white"/>
<path d="M14.7411 10.5176C13.6224 10.1288 12.3536 9.78131 11.4011 9.91131C9.1761 10.1863 5.1136 14.1863 2.7011 16.5988C2.3136 16.9863 2.4761 17.6363 3.0011 17.7988L7.96735 19.3988C10.0574 15.7663 12.3649 12.8551 14.7411 10.5176Z" fill="white"/>
<path d="M11.5775 34.4651C8.12004 36.4476 4.09004 36.4613 4.04004 36.4613C4.04004 36.4101 4.05254 32.3813 6.03629 28.9238L11.5775 34.4651Z" fill="white"/>
<path d="M26.8209 11.2075C26.1609 11.2075 25.5409 11.465 25.0746 11.9313C24.6071 12.3988 24.3496 13.0188 24.3496 13.6788C24.3496 14.3388 24.6071 14.96 25.0746 15.4263C26.0059 16.3613 27.6346 16.3613 28.5684 15.4263C29.5321 14.4625 29.5321 12.895 28.5684 11.9313C28.1009 11.465 27.4796 11.2075 26.8209 11.2075Z" fill="white"/>
<path d="M35.9276 2.98758C31.2276 3.07633 16.8826 4.93633 7.93757 23.4626C7.65007 24.0576 7.77507 24.7738 8.24257 25.2401L15.2588 32.2563C15.7263 32.7238 16.4413 32.8488 17.0363 32.5613C35.5638 23.6176 37.4238 9.27258 37.5126 4.57258C37.5288 3.68508 36.8151 2.97133 35.9276 2.98758ZM30.1601 17.0176C29.2676 17.9088 28.0826 18.4001 26.8213 18.4001C25.5601 18.4001 24.3738 17.9088 23.4826 17.0176C22.5913 16.1263 22.1001 14.9401 22.1001 13.6788C22.1001 12.4176 22.5926 11.2313 23.4826 10.3401C25.2651 8.55758 28.3751 8.55758 30.1601 10.3401C32.0001 12.1813 32.0001 15.1763 30.1601 17.0176Z" fill="white"/>
</svg>
