<svg width="45" height="45" viewBox="0 0 45 45" fill="none" xmlns="http://www.w3.org/2000/svg">
<path fill-rule="evenodd" clip-rule="evenodd" d="M38.1144 10.8388L34.4117 7.13611C34.0805 6.80494 33.5579 6.76291 33.178 7.03693L29.7488 9.51096C29.4683 9.71341 29.0993 9.7509 28.7862 9.60389C28.3488 9.39849 27.903 9.21626 27.4509 9.05744C27.1185 8.94042 26.8794 8.64709 26.8277 8.29854L26.1997 4.06382C26.1304 3.59564 25.7285 3.24902 25.2552 3.24902H20.0191C19.5508 3.24902 19.1513 3.58882 19.0766 4.05132L18.3798 8.35796C18.3243 8.70117 18.086 8.98553 17.7591 9.10402C17.3524 9.25148 16.9508 9.4178 16.5561 9.6031C16.2367 9.75295 15.8615 9.71773 15.5783 9.50755L12.0398 6.88322C11.6597 6.60136 11.1306 6.64021 10.7961 6.9749L7.09325 10.6778C6.76209 11.009 6.71994 11.5316 6.99407 11.9115L9.58047 15.4962C9.78507 15.7797 9.81654 16.1514 9.66692 16.4674C9.48765 16.8456 9.32587 17.2303 9.18159 17.6196C9.05992 17.948 8.77124 18.1854 8.42496 18.2367L4.02085 18.8898C3.55267 18.9591 3.20605 19.361 3.20605 19.8343V25.0704C3.20605 25.5387 3.54586 25.9382 4.00835 26.0129L8.3259 26.7116C8.67422 26.7681 8.96142 27.0126 9.07696 27.3459C9.21863 27.7552 9.37938 28.1591 9.55899 28.5568C9.70214 28.8737 9.66442 29.2426 9.45743 29.5216L6.84082 33.0497C6.55896 33.4298 6.59781 33.9589 6.9325 34.2934L10.6352 37.9961C10.9664 38.3273 11.489 38.3693 11.8689 38.0953L15.3136 35.61C15.5991 35.4042 15.9753 35.3703 16.2908 35.5263C16.7252 35.7411 17.1682 35.9328 17.6179 36.1011C17.9413 36.2222 18.1716 36.5116 18.2223 36.8531L18.8473 41.0683C18.9166 41.5365 19.3185 41.8831 19.7917 41.8831H25.028C25.4963 41.8831 25.8958 41.5433 25.9705 41.0808L26.6285 37.0133C26.6852 36.6631 26.9331 36.3756 27.2696 36.2625C27.7584 36.0981 28.2397 35.9069 28.712 35.6883C29.0309 35.5409 29.4042 35.5763 29.6864 35.7858L33.0073 38.2489C33.3874 38.5308 33.9165 38.4919 34.251 38.1572L37.9536 34.4545C38.2848 34.1234 38.3269 33.6008 38.0528 33.2209L35.6792 29.9308C35.4721 29.6436 35.4427 29.2663 35.5981 28.9482C35.8339 28.4655 36.0413 27.9724 36.2201 27.4715C36.3393 27.1373 36.6302 26.8944 36.9811 26.8424L41.0261 26.2425C41.4943 26.1732 41.8409 25.7714 41.8409 25.2981V20.0618C41.8409 19.5935 41.5011 19.1941 41.0386 19.1193L36.9867 18.4638C36.6399 18.4076 36.3538 18.1648 36.237 17.8334C36.0659 17.3485 35.868 16.8708 35.6433 16.4029C35.4889 16.0816 35.522 15.7017 35.7345 15.4154L38.2065 12.0826C38.488 11.7027 38.449 11.1735 38.1144 10.8388ZM33.2696 22.5662C33.2696 28.5012 28.4583 33.3124 22.5233 33.3124C16.5884 33.3124 11.7771 28.5012 11.7771 22.5662C11.7771 16.6312 16.5884 11.8199 22.5233 11.8199C28.4583 11.8199 33.2696 16.6312 33.2696 22.5662Z" fill="white"/>
<path fill-rule="evenodd" clip-rule="evenodd" d="M19.1675 27.318L16.6489 24.7995C15.9868 24.1373 15.9868 23.0636 16.6489 22.4015C17.311 21.7394 18.3846 21.7394 19.0468 22.4015L20.2534 23.6079L26 17.8613C26.6621 17.1992 27.7357 17.1992 28.3979 17.8613C29.06 18.5234 29.06 19.597 28.3979 20.2592L21.3392 27.3179C20.7393 27.9178 19.7671 27.9178 19.1675 27.318Z" fill="white"/>
</svg>
