<svg width="26" height="26" viewBox="0 0 26 26" fill="none" xmlns="http://www.w3.org/2000/svg">
<path d="M23.5849 18.2042L14.8234 10.4238L13.1113 12.1359L20.8917 20.8974C21.6226 21.7265 22.8981 21.7657 23.6781 20.9857C24.4581 20.2057 24.414 18.9303 23.5849 18.2042Z" fill="#BFF747"/>
<path d="M13.1063 20.1226C13.1063 19.2445 12.395 18.5381 11.5218 18.5381H5.06596C4.19277 18.5381 3.48145 19.2445 3.48145 20.1226V20.829H13.1063V20.1226Z" fill="#BFF747"/>
<path d="M13.239 21.3193H3.34917C2.47598 21.3193 1.76465 22.0258 1.76465 22.9039V24.1548C1.76465 24.4541 2.00993 24.6993 2.30917 24.6993H14.279C14.5831 24.6993 14.8235 24.4541 14.8235 24.1548V22.9039C14.8235 22.0258 14.1122 21.3193 13.239 21.3193Z" fill="#BFF747"/>
<path d="M6.4375 8.74902L11.4443 3.74218L16.1224 8.42023L11.1155 13.4271L6.4375 8.74902Z" fill="#BFF747"/>
<path d="M16.5663 8.17647C17.0269 8.63713 17.7725 8.63716 18.2332 8.17647C18.6938 7.71582 18.6938 6.97027 18.2332 6.50961L13.3659 1.64234C13.1356 1.41199 12.8325 1.29684 12.5325 1.29986C12.2324 1.29684 11.9294 1.41199 11.699 1.64234C11.2383 2.10302 11.2383 2.84854 11.699 3.30923L16.5663 8.17647Z" fill="#BFF747"/>
<path d="M9.19909 15.5437C9.65975 16.0043 10.4053 16.0043 10.866 15.5437C11.3266 15.083 11.3266 14.3375 10.866 13.8768L5.99871 9.00956C5.76837 8.77922 5.46529 8.66406 5.1683 8.66406C4.86523 8.66406 4.56216 8.77922 4.33182 9.00956C3.87116 9.47021 3.87116 10.2158 4.33182 10.6764L9.19909 15.5437Z" fill="#BFF747"/>
</svg>
