<svg width="48" height="48" viewBox="0 0 48 48" fill="none" xmlns="http://www.w3.org/2000/svg">
<g clip-path="url(#clip0_6023_832)">
<path d="M33.9378 13.9041C37.0575 14.2492 40.1964 14.3889 43.3344 14.3223L43.326 14.3091C39.6404 8.69997 34.8715 3.88355 29.2991 0.142578C29.2069 3.29526 29.3234 6.45059 29.6478 9.58789C29.8803 11.6616 31.8613 13.6566 33.9378 13.9041Z" fill="#BFF747"/>
<path d="M43.4065 16.8243C42.7821 16.8374 42.1587 16.8458 41.5399 16.843C38.9057 16.8328 36.2739 16.6829 33.6555 16.3939H33.633C32.073 16.2064 30.5393 15.4274 29.3205 14.1983C28.1018 12.9693 27.3312 11.4318 27.1558 9.86988V9.84738C26.8205 6.59104 26.7005 3.3161 26.7968 0.0439442C21.875 -0.0934232 16.9495 0.0913464 12.0518 0.597069C8.7799 0.964569 5.63272 4.08926 5.24178 7.35832C4.3549 15.3749 4.30147 30.2811 5.12928 38.3033C5.49678 41.5752 8.62522 44.7186 11.8905 45.1133C17.6627 45.752 23.4756 45.9447 29.2774 45.6899C29.2918 45.4084 29.3435 45.13 29.4312 44.8621L29.4358 44.8471L29.4415 44.8311C29.8774 43.5636 30.5299 41.9624 31.1993 40.5055C31.1758 40.4671 31.1505 40.4296 31.128 40.3902C30.7163 39.6726 30.5097 38.8557 30.5308 38.0286C30.1054 37.3202 29.8821 36.5089 29.885 35.6825C29.888 34.8562 30.1172 34.0465 30.5477 33.3411C30.5324 32.5137 30.7441 31.6978 31.16 30.9823C31.5759 30.2668 32.1799 29.679 32.9065 29.2827C33.3018 28.5754 33.8786 27.9863 34.5775 27.5763C35.2765 27.1663 36.0721 26.9501 36.8824 26.9502H36.9762C37.6847 26.5252 38.4961 26.3022 39.3224 26.3053C40.1487 26.3085 40.9583 26.5376 41.6637 26.968H41.7574C42.3213 26.9705 42.8798 27.0789 43.4037 27.2877C43.4927 23.8311 43.4908 20.2105 43.4065 16.8243ZM14.3102 17.7618H14.3158L27.469 17.8124C27.8171 17.8124 28.1509 17.9507 28.397 18.1968C28.6432 18.4429 28.7815 18.7768 28.7815 19.1249C28.7815 19.473 28.6432 19.8068 28.397 20.053C28.1509 20.2991 27.8171 20.4374 27.469 20.4374H27.4643L14.3102 20.3896C13.9621 20.3896 13.6283 20.2513 13.3821 20.0051C13.136 19.759 12.9977 19.4252 12.9977 19.0771C12.9977 18.729 13.136 18.3951 13.3821 18.149C13.6283 17.9028 13.9621 17.7646 14.3102 17.7646V17.7618ZM28.3249 33.0111L14.2624 32.9605C13.9143 32.9599 13.5807 32.821 13.335 32.5744C13.0893 32.3278 12.9516 31.9938 12.9522 31.6457C12.9529 31.2976 13.0917 30.964 13.3383 30.7183C13.5849 30.4726 13.919 30.3349 14.2671 30.3355L28.3296 30.3861C28.6777 30.3868 29.0113 30.5256 29.257 30.7722C29.5027 31.0188 29.6404 31.3529 29.6397 31.701C29.6391 32.0491 29.5002 32.3827 29.2537 32.6284C29.0071 32.8741 28.673 33.0118 28.3249 33.0111ZM33.7052 26.7439H33.6996L14.2849 26.6736C13.9368 26.6736 13.603 26.5354 13.3568 26.2892C13.1107 26.0431 12.9724 25.7092 12.9724 25.3611C12.9724 25.013 13.1107 24.6792 13.3568 24.4331C13.603 24.1869 13.9368 24.0486 14.2849 24.0486H14.2896L33.7052 24.1189C34.0533 24.1196 34.3869 24.2584 34.6326 24.505C34.8783 24.7516 35.016 25.0857 35.0154 25.4338C35.0147 25.7819 34.8759 26.1155 34.6293 26.3612C34.3827 26.6069 34.0486 26.7446 33.7005 26.7439H33.7052Z" fill="#BFF747"/>
<path d="M45.7499 34.6618C45.5078 34.3037 45.3941 33.8741 45.4274 33.4431C45.4579 33.0604 45.3722 32.6774 45.1816 32.3442C44.9909 32.011 44.7041 31.7431 44.3586 31.5756C43.9686 31.3867 43.6545 31.0706 43.468 30.6793C43.3032 30.3326 43.0376 30.0437 42.7059 29.8505C42.3741 29.6573 41.9918 29.5688 41.6089 29.5965C41.1769 29.6282 40.7469 29.5115 40.3902 29.2656C40.0741 29.0476 39.6996 28.9302 39.3157 28.9287C38.9318 28.9272 38.5564 29.0417 38.2386 29.2571C37.8807 29.4998 37.451 29.6136 37.0199 29.5796C36.638 29.5497 36.256 29.6355 35.9235 29.8258C35.5911 30.0161 35.3237 30.3021 35.1561 30.6465C34.967 31.0366 34.6505 31.3504 34.2589 31.5362C33.9122 31.7012 33.6235 31.967 33.4304 32.2989C33.2374 32.6308 33.1491 33.0133 33.1771 33.3962C33.208 33.8284 33.091 34.2582 32.8452 34.615C32.6274 34.9311 32.5101 35.3057 32.5088 35.6896C32.5075 36.0735 32.6221 36.4489 32.8377 36.7665C33.0802 37.1245 33.1939 37.5542 33.1602 37.9853C33.1295 38.368 33.2151 38.751 33.4058 39.0843C33.5965 39.4175 33.8834 39.6853 34.2289 39.8528C34.6188 40.0419 34.9329 40.3579 35.1196 40.749C35.2842 41.0958 35.5499 41.3848 35.8816 41.578C36.2133 41.7712 36.5957 41.8597 36.9786 41.8318C37.4108 41.8008 37.8406 41.9178 38.1974 42.1637C38.5136 42.3813 38.8881 42.4984 39.272 42.4997C39.6558 42.501 40.0312 42.3865 40.3489 42.1712C40.7067 41.9282 41.1366 41.8144 41.5677 41.8487C41.9503 41.8793 42.3332 41.7938 42.6664 41.6033C42.9996 41.4128 43.2675 41.1261 43.4352 40.7809C43.6235 40.3904 43.9398 40.0762 44.3314 39.8903C44.6781 39.7254 44.9669 39.4597 45.1601 39.128C45.3533 38.7963 45.4418 38.4141 45.4142 38.0312C45.3827 37.5991 45.4994 37.1692 45.7452 36.8125C45.9625 36.4962 46.0792 36.1216 46.08 35.7379C46.0809 35.3541 45.9658 34.9791 45.7499 34.6618ZM42.9158 35.1493C42.5652 35.5815 42.2024 36.0287 41.8367 36.4853C41.7638 36.5756 41.7235 36.6879 41.7224 36.804C41.7224 37.3721 41.7077 37.94 41.6783 38.5075C41.6605 38.8543 41.3033 39.1309 40.9977 39.0296C40.4905 38.8637 39.9721 38.6809 39.4442 38.4859C39.3387 38.4466 39.2226 38.4466 39.1171 38.4859C38.5883 38.6734 38.068 38.8562 37.5599 39.0175C37.2496 39.1168 36.8989 38.8384 36.883 38.4915C36.8605 37.9234 36.8499 37.3553 36.8511 36.7871C36.8505 36.6711 36.8112 36.5587 36.7396 36.4675C36.3767 36.009 36.0167 35.559 35.6699 35.124C35.4552 34.8578 35.6061 34.4678 35.9511 34.359C36.5136 34.1846 37.0761 34.0075 37.6321 33.8321C37.7459 33.7976 37.8449 33.726 37.9133 33.6287C38.2517 33.1459 38.5864 32.6593 38.908 32.1756C38.9499 32.1073 39.0087 32.051 39.0786 32.0119C39.1485 31.9728 39.2273 31.9522 39.3074 31.9522C39.3875 31.9522 39.4662 31.9728 39.5362 32.0119C39.6061 32.051 39.6648 32.1073 39.7067 32.1756C40.0246 32.6612 40.3555 33.1506 40.6902 33.6362C40.7584 33.7341 40.8574 33.8063 40.9714 33.8415C41.5274 34.0206 42.0871 34.2015 42.6477 34.3796C42.9871 34.4931 43.1352 34.885 42.9186 35.1493H42.9158Z" fill="#BFF747"/>
<path d="M44.7509 41.1738C44.6947 41.2248 44.6486 41.2859 44.6149 41.3538C44.3496 41.8964 43.9378 42.3538 43.426 42.6744C42.9142 42.995 42.3229 43.1659 41.719 43.1679C41.6337 43.1679 41.5474 43.1679 41.463 43.1576H41.4152C41.2961 43.1573 41.1797 43.1932 41.0815 43.2607C40.8111 43.4442 40.5142 43.5852 40.2012 43.6788C40.7524 45.0682 41.4199 46.5635 41.9984 47.6838C42.2018 48.0645 42.813 48.1226 42.9612 47.7513C43.2012 47.1729 43.4515 46.5448 43.7112 45.8979C43.743 45.82 43.8044 45.758 43.8819 45.7253C43.9594 45.6926 44.0466 45.692 44.1246 45.7235C44.7677 45.9888 45.393 46.2457 45.9752 46.4735C46.3455 46.6263 46.7252 46.1473 46.5968 45.7366C46.0593 44.1854 45.4432 42.6625 44.7509 41.1738Z" fill="#BFF747"/>
<path d="M37.4517 43.246C37.3521 43.1776 37.2341 43.141 37.1133 43.141H37.0701C36.9933 43.1466 36.9145 43.1495 36.8367 43.1495C36.2287 43.148 35.6335 42.975 35.1194 42.6505C34.6053 42.326 34.1932 41.863 33.9304 41.3148C33.898 41.2466 33.8524 41.1854 33.7964 41.1348C33.0946 42.6179 32.4688 44.1358 31.9214 45.6826C31.7864 46.0923 32.167 46.5741 32.5383 46.4251C33.1214 46.1991 33.7486 45.946 34.3945 45.6854C34.4332 45.67 34.4746 45.6625 34.5162 45.6631C34.5579 45.6637 34.599 45.6726 34.6372 45.6891C34.6754 45.7057 34.71 45.7296 34.739 45.7595C34.768 45.7894 34.7908 45.8248 34.8061 45.8635C35.0592 46.5123 35.3048 47.1423 35.5411 47.7216C35.6864 48.0966 36.2986 48.0404 36.5039 47.6616C37.0908 46.5451 37.7686 45.0554 38.3301 43.6707C38.0174 43.5748 37.7211 43.4316 37.4517 43.246Z" fill="#BFF747"/>
</g>
<defs>
<clipPath id="clip0_6023_832">
<rect width="48" height="48" fill="white"/>
</clipPath>
</defs>
</svg>
