<svg width="48" height="48" viewBox="0 0 48 48" fill="none" xmlns="http://www.w3.org/2000/svg">
<path fill-rule="evenodd" clip-rule="evenodd" d="M7.05314 6.91347C7.13176 6.63939 7.38434 6.43885 7.68366 6.43885H21.0299C21.0556 6.43885 21.0778 6.42896 21.095 6.40985L24.0574 3.10938L24.0529 3.13241C24.0475 3.16006 24.0545 3.18617 24.0733 3.20729L26.9124 6.40957C26.9296 6.42896 26.9519 6.43904 26.9778 6.43904H40.3164C40.6157 6.43904 40.8682 6.63958 40.9469 6.91357C40.9473 6.91472 40.9476 6.91577 40.948 6.91693L45.5526 20.8117C45.5528 20.8123 45.553 20.8127 45.5532 20.8133C45.6021 20.9518 45.6048 21.047 45.5795 21.1873C45.5793 21.1886 45.5791 21.1895 45.5789 21.1908C45.3995 22.4831 44.7578 23.6257 43.8271 24.4451C41.8199 26.2121 38.8128 26.2121 36.8056 24.4451C35.8738 23.6248 35.2317 22.4804 35.0533 21.1863C35.0531 21.1851 35.053 21.1841 35.0528 21.1829C35.0302 21.0558 35.0303 20.9623 35.0742 20.8298L39.3705 7.8656C39.3796 7.83805 39.3754 7.8104 39.3584 7.78688C39.3414 7.76336 39.3165 7.75059 39.2875 7.75059H27.6899C27.6641 7.75059 27.642 7.76048 27.6248 7.77968C27.6076 7.79888 27.6002 7.82201 27.603 7.84755L30.4055 33.2791C30.4097 33.3179 30.3892 33.3534 30.3534 33.3689C29.531 33.7256 28.6731 34.0584 27.8025 34.2427C27.7577 34.2522 27.7135 34.2258 27.7005 34.182C27.3836 33.1122 26.5516 32.2149 25.4147 31.8721L24.718 31.6621C24.6807 31.6508 24.656 31.6178 24.6558 31.5787L24.5494 7.06112C24.5494 7.05718 24.5492 7.05392 24.5487 7.05008L24.1096 3.72646C24.104 3.68365 24.0688 3.65187 24.0257 3.65053C23.9825 3.64918 23.9455 3.67865 23.9372 3.72109L23.2966 6.98153C23.2955 6.98739 23.295 6.99258 23.295 6.99853L23.3439 31.13C23.344 31.1587 23.3316 31.1833 23.3086 31.2003C23.2857 31.2174 23.2585 31.2221 23.2311 31.2139L18.5515 29.803C18.3904 29.7545 18.2299 29.7124 18.07 29.6769C18.0262 29.6672 17.9971 29.6265 18.002 29.5819L20.3971 7.84745C20.3999 7.82182 20.3925 7.79869 20.3753 7.77958C20.3582 7.76038 20.336 7.75049 20.3103 7.75049H8.71269C8.68369 7.75049 8.65883 7.76326 8.64184 7.78678C8.62485 7.8103 8.62062 7.83795 8.62974 7.8655L12.9202 20.812C12.9204 20.8125 12.9206 20.813 12.9208 20.8136C12.9696 20.9518 12.9721 21.0471 12.9469 21.1871C12.9467 21.1884 12.9465 21.1893 12.9463 21.1906C12.767 22.4829 12.1252 23.6255 11.1945 24.4449C9.18731 26.2119 6.1803 26.2119 4.17304 24.4449C3.24117 23.6246 2.59912 22.4804 2.42065 21.1864C2.42046 21.1852 2.42037 21.1842 2.42017 21.183C2.39761 21.0558 2.39761 20.9623 2.44158 20.8296L7.05218 6.91693C7.05256 6.91568 7.05285 6.91472 7.05314 6.91347ZM27.7661 35.5901C27.7403 35.5947 27.7199 35.6088 27.7065 35.6313C27.693 35.6538 27.6903 35.6784 27.6984 35.7033C27.7444 35.8438 27.7383 35.9892 27.688 36.1345C27.6877 36.1352 27.6876 36.1358 27.6873 36.1364C27.4651 36.831 26.9981 37.3514 26.4082 37.668C25.7976 37.9958 25.0561 38.1006 24.3275 37.9474C22.9924 37.6667 21.153 37.1849 19.9721 37.0724C19.4923 37.0267 19.0397 37.0442 18.5527 37.1138C18.1947 37.1648 17.8632 36.9159 17.8122 36.5579C17.7613 36.1999 18.0102 35.8684 18.3682 35.8174C18.6516 35.7767 18.9398 35.7516 19.2343 35.7429C20.7798 35.698 22.9468 36.3201 24.5938 36.6663C25.0198 36.7558 25.4453 36.6989 25.788 36.515C26.0871 36.3545 26.3237 36.0933 26.4366 35.7463C26.437 35.7453 26.4372 35.7444 26.4376 35.7433C26.7611 34.6127 26.134 33.4632 25.0348 33.1318L18.1718 31.0627C15.1518 30.1523 13.2547 32.3342 10.5286 33.0771C8.65086 33.5888 6.7612 33.9664 4.78235 34.4864C4.74337 34.4967 4.71717 34.5307 4.71717 34.571V43.4271C4.71717 43.4512 4.72581 43.472 4.74289 43.4891C4.75998 43.5061 4.78081 43.5147 4.80501 43.5145C8.91112 43.4945 13.2402 43.3092 17.272 43.8904C19.5475 44.2184 21.7958 45.0498 24.0678 44.8647C26.9316 44.6314 29.9637 42.8027 32.332 41.2673C35.7867 39.0275 39.9996 35.4398 43.0376 32.5615C43.7696 31.868 43.8398 30.7316 43.1988 29.9533L43.1099 29.8454C42.5143 29.1222 41.5074 28.9343 40.6912 29.3941C36.7763 31.5994 32.1116 34.252 29.2014 35.2246C28.74 35.3791 28.2618 35.5013 27.7661 35.5901ZM4.08981 20.3885H11.2776C11.3066 20.3885 11.3315 20.3757 11.3485 20.3522C11.3655 20.3287 11.3697 20.3011 11.3606 20.2735L7.7667 9.42886C7.75461 9.39248 7.72206 9.36896 7.68366 9.36896C7.64536 9.36896 7.61272 9.39248 7.60062 9.42886L4.00686 20.2736C3.99774 20.3011 4.00197 20.3288 4.01896 20.3523C4.03595 20.3757 4.06081 20.3885 4.08981 20.3885ZM36.7225 20.3885H43.9103C43.9393 20.3885 43.9642 20.3757 43.9812 20.3522C43.9982 20.3287 44.0024 20.3011 43.9933 20.2735L40.3994 9.42886C40.3873 9.39248 40.3548 9.36896 40.3164 9.36896C40.2781 9.36896 40.2454 9.39248 40.2333 9.42886L36.6396 20.2736C36.6304 20.3011 36.6347 20.3288 36.6517 20.3523C36.6687 20.3757 36.6935 20.3885 36.7225 20.3885Z" fill="#BFF747"/>
</svg>
