<svg width="48" height="48" viewBox="0 0 48 48" fill="none" xmlns="http://www.w3.org/2000/svg">
<g opacity="0.24">
<path d="M12.9997 6C19.3881 6 23.9997 11.2741 23.9996 19.0833C23.9587 30.4295 15.4291 38.4517 3.12395 39.9923C1.98233 40.1352 1.54213 38.5537 2.59342 38.0863C7.315 35.9868 9.69964 33.3226 10.0077 30.6857C10.2378 28.7155 9.16679 26.9898 7.82198 26.6666C4.33562 25.8288 1.99972 21.4872 1.99972 17C1.99972 10.9249 6.92459 6 12.9997 6Z" fill="#BFF747"/>
<path d="M36.9997 6C43.3881 6 47.9997 11.2741 47.9996 19.0833C47.9587 30.4295 39.4291 38.4517 27.1239 39.9923C25.9823 40.1352 25.5421 38.5537 26.5934 38.0863C31.315 35.9868 33.6996 33.3226 34.0077 30.6857C34.2378 28.7155 33.1668 26.9898 31.822 26.6666C28.3356 25.8288 25.9997 21.4872 25.9997 17C25.9997 10.9249 30.9246 6 36.9997 6Z" fill="#BFF747"/>
</g>
</svg>
