<svg width="24" height="24" viewBox="0 0 24 24" fill="none" xmlns="http://www.w3.org/2000/svg">
<path d="M9.35702 16.621C8.90327 16.34 8.30152 16.2365 7.99852 15.596C7.70252 14.9535 8.01102 14.4213 8.08677 13.8965C7.91777 13.3375 7.53252 12.619 7.97727 11.9593C7.65877 11.5745 7.34927 11.1808 7.05402 10.7793C5.08327 12.5218 2.48202 14.5143 1.63252 15.1568C1.09827 15.5468 1.17102 16.262 1.18252 16.8543C1.37377 19.3173 2.47877 21.4563 4.82927 22.996C4.91377 22.996 4.99552 22.9518 5.04027 22.88C6.26502 20.9515 7.92177 18.9533 9.64402 17.0963C9.55802 16.9583 9.44277 16.7163 9.35702 16.6205V16.621Z" fill="white"/>
<path d="M10.0898 17.6484C10.0503 17.6152 10.013 17.5807 9.97776 17.5449C8.52826 19.1399 7.14601 20.8274 6.05176 22.4809C6.49151 22.5784 6.93951 22.6302 7.39001 22.6302C7.89501 22.6579 8.44276 22.5464 8.70001 22.0552C9.10926 21.3232 9.54576 20.6069 10.0073 19.9077L10.0895 17.6484H10.0898Z" fill="white"/>
<path d="M12.5406 17.7279C12.4149 17.6929 12.2589 17.6494 12.1859 17.6494C11.7224 17.7772 11.1276 18.1029 10.5804 17.9074L10.4826 20.5879C10.4791 20.6802 10.5269 20.7667 10.6064 20.8129C10.6861 20.8594 10.7846 20.8587 10.8634 20.8099L11.8024 20.2322L12.6966 20.8767C12.7719 20.9307 12.8699 20.9389 12.9526 20.8984C13.0354 20.8579 13.0894 20.7749 13.0926 20.6829L13.1956 17.8557C12.9551 17.8407 12.7276 17.7802 12.5406 17.7279Z" fill="white"/>
<path d="M8.82748 11.2512C8.92373 11.1977 9.07948 11.1109 9.11573 11.0714C9.34748 10.7039 9.45298 10.2154 9.87373 9.8832C9.63198 9.6317 9.38798 9.38095 9.14923 9.1287C9.05698 9.02795 8.88498 9.02345 8.79073 9.1237L7.59873 10.3157C7.51098 10.4034 7.50073 10.5422 7.57473 10.6417C7.81223 10.9612 8.06073 11.2737 8.31373 11.5824C8.48498 11.4424 8.66973 11.3387 8.82698 11.2512H8.82748Z" fill="white"/>
<path d="M18.1881 17.3274L16.0553 15.4746C15.7623 15.9641 15.2751 16.1154 14.9066 16.3796C14.7093 16.6846 14.6071 17.1031 14.3096 17.4181L16.4748 19.2991C16.5213 19.3394 16.5796 19.3604 16.6388 19.3604C16.7616 19.3621 16.8731 19.2646 16.8868 19.1421L17.0268 18.0484L18.0901 17.7569C18.2783 17.7119 18.3378 17.4494 18.1881 17.3274Z" fill="white"/>
<path d="M15.5736 14.0557C15.1744 13.3715 15.8631 12.7597 15.5701 12.0657C15.3476 11.5732 14.6881 11.497 14.3266 11.1982C14.0029 10.8585 13.8739 10.2147 13.3539 10.0352C12.8414 9.83924 12.3274 10.248 11.8611 10.3007C11.7169 10.3072 11.5359 10.257 11.3459 10.204C10.5296 9.92774 10.0536 10.1452 9.74039 10.9527C9.58664 11.3367 9.44214 11.5055 9.06914 11.6882C8.27889 12.0707 8.08639 12.5912 8.44789 13.395C8.51564 13.572 8.57989 13.7392 8.58589 13.8747C8.59214 14.021 8.54214 14.2002 8.48914 14.39C8.21239 15.207 8.43089 15.682 9.23789 15.9955C9.62189 16.149 9.79089 16.2935 9.97339 16.6665C10.3556 17.4545 10.8721 17.6505 11.6801 17.2877C12.0596 17.1187 12.2819 17.1185 12.6746 17.2465C13.4911 17.523 13.9671 17.3052 14.2806 16.4977C14.4344 16.1137 14.5786 15.945 14.9516 15.7622C15.7416 15.38 15.9344 14.8592 15.5729 14.0555L15.5736 14.0557ZM13.1159 14.8302C12.5056 15.4405 11.5164 15.4405 10.9061 14.8302C9.49414 13.3172 11.6034 11.2087 13.1159 12.6207C13.7261 13.231 13.7261 14.2202 13.1159 14.8302Z" fill="white"/>
<path d="M22.6198 6.14507C21.9998 4.16507 19.6636 1.83157 17.6848 1.21007C16.4491 0.821073 15.4943 0.945572 14.9866 1.83182C13.2888 4.21832 11.3906 6.49857 9.33008 8.59332C9.66033 8.94432 9.99983 9.29557 10.3353 9.64282C10.8266 9.47657 11.3901 9.72932 11.8356 9.80132C12.3213 9.66057 12.9621 9.32807 13.5251 9.56557C14.1961 9.81507 14.3563 10.3961 14.6648 10.8298C14.9233 11.0018 15.2908 11.1003 15.5763 11.3233C17.0758 9.98807 18.1003 9.15557 18.1303 9.13132C18.1883 9.08432 18.2226 9.01332 18.2231 8.93857C18.2236 8.86382 18.1903 8.79232 18.1328 8.74457C17.1881 7.96157 16.1921 6.99782 15.6693 5.32107C16.4501 6.51357 17.5681 7.61707 18.6523 8.55307C18.7663 8.64832 18.8316 8.78807 18.8311 8.93682C18.8311 9.08582 18.7646 9.22557 18.6498 9.32057C18.2026 9.69007 17.2031 10.5291 15.9236 11.6791C16.1998 12.0643 16.1766 12.5981 16.0746 12.9643C17.7758 11.4683 19.6173 10.1543 21.5873 9.02507C22.8023 8.61357 23.0793 7.57207 22.6198 6.14507ZM18.0781 6.03382C17.7636 5.58957 17.4646 5.07957 17.4708 4.52107C17.4798 3.95782 17.8473 3.57757 18.3963 3.79707C18.8861 3.96807 19.3408 4.44457 19.4341 4.86182L18.1091 6.07432C18.0991 6.06082 18.0876 6.04707 18.0778 6.03382H18.0781ZM15.4473 3.73007C15.3873 3.55257 15.3398 3.36757 15.3098 3.18257C15.0448 1.74557 16.0666 1.17757 17.5273 1.68507C18.4473 1.99257 19.4373 2.64257 20.3123 3.52007C21.4278 4.68607 22.2446 5.87282 22.3248 7.29257C22.3138 8.06757 21.9571 8.54932 21.1888 8.32657C20.1051 8.02307 19.1778 7.27982 18.4251 6.46307L19.8688 5.14182C19.9246 5.09082 19.9541 5.01732 19.9493 4.94182C19.8753 3.85532 18.2291 2.67682 17.3471 3.53632C17.3391 3.54232 17.3296 3.54557 17.3223 3.55257L16.2723 4.60507C17.1866 6.08507 18.3923 7.36582 19.8413 8.28432C17.9576 7.52132 16.1418 5.68757 15.4473 3.73007Z" fill="white"/>
</svg>
