<svg width="24" height="24" viewBox="0 0 24 24" fill="none" xmlns="http://www.w3.org/2000/svg">
<path d="M2.85938 21.8906V23.2969C2.85938 23.685 3.17437 24 3.5625 24H20.4375C20.8256 24 21.1406 23.685 21.1406 23.2969V21.8906H2.85938Z" fill="white"/>
<path d="M15.583 8.29594C16.664 7.14844 17.1224 5.58891 16.8402 4.01672C16.4324 1.74141 14.4037 0 11.9999 0C9.5685 0 7.56179 1.77047 7.1596 4.01672C6.87741 5.58891 7.33585 7.14844 8.41679 8.29594C9.1485 9.07312 9.41944 10.0673 9.51788 10.7644C9.7246 12.2302 9.28022 13.3378 8.72288 14.1562H15.2779C14.7201 13.3378 14.2757 12.2292 14.4819 10.7644C14.5804 10.0673 14.8513 9.07312 15.583 8.29594Z" fill="white"/>
<path d="M21.8438 20.4844H2.15625C1.76794 20.4844 1.45312 20.1696 1.45312 19.7812V19.0781C1.45312 17.1396 3.03023 15.5625 4.96875 15.5625H19.0312C20.9698 15.5625 22.5469 17.1396 22.5469 19.0781V19.7812C22.5469 20.1696 22.2321 20.4844 21.8438 20.4844Z" fill="white"/>
</svg>
