<svg width="41" height="40" viewBox="0 0 41 40" fill="none" xmlns="http://www.w3.org/2000/svg">
<path d="M2.58867 16.3337C2.558 16.327 2.53 16.3137 2.5 16.3057V27.3337C2.5 27.6873 2.64048 28.0264 2.89052 28.2765C3.14057 28.5265 3.47971 28.667 3.83333 28.667H18.5253C18.5781 28.2137 18.7814 27.7911 19.1027 27.467C19.4104 27.1732 19.7999 26.9796 20.2199 26.9115C20.6398 26.8434 21.0706 26.9042 21.4553 27.0857L27.5887 20.9557C27.3995 20.5713 27.335 20.1374 27.4042 19.7146C27.4734 19.2917 27.6728 18.9011 27.9747 18.597C28.3087 18.2838 28.7349 18.0868 29.1899 18.0353C29.6449 17.9837 30.1044 18.0804 30.5 18.311V16.3057C30.47 16.313 30.4427 16.3263 30.412 16.333L20.5 18.5337V20.667C20.5 21.1974 20.2893 21.7061 19.9142 22.0812C19.5391 22.4563 19.0304 22.667 18.5 22.667H14.5C13.9696 22.667 13.4609 22.4563 13.0858 22.0812C12.7107 21.7061 12.5 21.1974 12.5 20.667V18.5337L2.58867 16.3337Z" fill="#BFF747"/>
<path d="M18.4997 21.3337C18.6765 21.3337 18.8461 21.2634 18.9711 21.1384C19.0961 21.0134 19.1663 20.8438 19.1663 20.667V18.667H13.833V20.667C13.833 20.8438 13.9032 21.0134 14.0283 21.1384C14.1533 21.2634 14.3229 21.3337 14.4997 21.3337H18.4997Z" fill="#BFF747"/>
<path d="M23.8337 5.33301V2.66634C23.8337 2.31272 23.6932 1.97358 23.4431 1.72353C23.1931 1.47348 22.8539 1.33301 22.5003 1.33301H10.5003C10.1467 1.33301 9.80757 1.47348 9.55752 1.72353C9.30747 1.97358 9.16699 2.31272 9.16699 2.66634V5.33301H10.5003V3.99967C10.5003 3.64605 10.6408 3.30691 10.8909 3.05687C11.1409 2.80682 11.48 2.66634 11.8337 2.66634H21.167C21.5206 2.66634 21.8598 2.80682 22.1098 3.05687C22.3599 3.30691 22.5003 3.64605 22.5003 3.99967V5.33301H23.8337Z" fill="#BFF747"/>
<path d="M33.3668 30.8545L31.3535 32.8678L36.7342 38.2498C37.0024 38.511 37.3628 38.6561 37.7372 38.6536C38.1116 38.6511 38.47 38.5012 38.7347 38.2364C38.9994 37.9716 39.1492 37.6131 39.1516 37.2387C39.154 36.8643 39.0088 36.504 38.7475 36.2358L33.3668 30.8545Z" fill="#BFF747"/>
<path d="M29.425 19.3331C29.3303 19.3323 29.2363 19.3503 29.1487 19.3861C29.061 19.4219 28.9813 19.4748 28.9143 19.5418C28.7778 19.6783 28.7012 19.8634 28.7012 20.0564C28.7012 20.2494 28.7778 20.4346 28.9143 20.5711L35.811 27.4664C35.9495 27.5984 36.1336 27.672 36.325 27.672C36.5163 27.672 36.7004 27.5984 36.839 27.4664C36.9754 27.3299 37.0521 27.1448 37.0521 26.9518C37.0521 26.7587 36.9754 26.5736 36.839 26.4371L29.9423 19.5418C29.8743 19.4743 29.7935 19.4211 29.7047 19.3852C29.6158 19.3494 29.5207 19.3317 29.425 19.3331Z" fill="#BFF747"/>
<path d="M27.9709 36.3402C28.1073 36.2037 28.184 36.0186 28.184 35.8255C28.184 35.6325 28.1073 35.4474 27.9709 35.3109L21.0736 28.4122C20.9391 28.2773 20.7567 28.201 20.5662 28.2002C20.4226 28.2016 20.2826 28.245 20.1635 28.3253C20.0444 28.4055 19.9515 28.5189 19.8963 28.6514C19.841 28.784 19.8259 28.9298 19.8528 29.0708C19.8797 29.2119 19.9474 29.3419 20.0476 29.4449L26.9422 36.3402C27.0788 36.4763 27.2637 36.5527 27.4566 36.5527C27.6494 36.5527 27.8343 36.4763 27.9709 36.3402Z" fill="#BFF747"/>
<path d="M31.4203 24.9637L28.443 21.9863L22.4883 27.941L25.4656 30.919L28.443 33.897L34.3976 27.941L31.4203 24.9637Z" fill="#BFF747"/>
<path d="M2.87769 15.031L13.239 17.3337H19.7604L30.1224 15.031C30.4191 14.9664 30.6846 14.802 30.8747 14.5651C31.0647 14.3282 31.1677 14.0333 31.1664 13.7297V8.00033C31.1664 7.6467 31.0259 7.30757 30.7758 7.05752C30.5258 6.80747 30.1866 6.66699 29.833 6.66699H3.16635C2.81273 6.66699 2.47359 6.80747 2.22354 7.05752C1.9735 7.30757 1.83302 7.6467 1.83302 8.00033V13.7297C1.83175 14.0334 1.93482 14.3284 2.12497 14.5653C2.31513 14.8021 2.58084 14.9665 2.87769 15.031Z" fill="#BFF747"/>
</svg>
