<svg width="40" height="40" viewBox="0 0 40 40" fill="none" xmlns="http://www.w3.org/2000/svg">
<path fill-rule="evenodd" clip-rule="evenodd" d="M5.37422 21.1152V35.2238H21.5969V33.2215C21.5969 32.673 22.0461 32.2246 22.5938 32.2246H28.0906C28.6391 32.2246 29.0859 32.6738 29.0859 33.2215V35.2238H34.6234V21.1145L20.0031 17.1941L5.37422 21.1152ZM26.4992 26.6355L22.0617 28.809C21.893 28.0652 21.6555 27.3121 21.3242 26.5457L9.99766 32.0949C9.68828 32.2449 9.31641 32.1168 9.16641 31.8098C9.01641 31.5004 9.14219 31.1285 9.45156 30.9785L20.7789 25.4285C20.4 24.7379 19.9367 24.0348 19.3703 23.3168L23.8078 21.1434C24.2773 23.1449 25.2352 24.9535 26.4992 26.6355ZM39.9609 19.8059H35.2648L20.7148 15.9051L20.7133 4.77695L39.9609 19.8059ZM19.2891 15.9051L4.73516 19.8059H0.0390625L19.2875 4.77539L19.2891 15.9051Z" fill="#BFF747"/>
</svg>
