<svg width="41" height="40" viewBox="0 0 41 40" fill="none" xmlns="http://www.w3.org/2000/svg">
<g clip-path="url(#clip0_6023_946)">
<path fill-rule="evenodd" clip-rule="evenodd" d="M34.514 32.0841V0H11.4551V32.0841H34.514ZM22.9835 6.94749C28.0062 6.94749 32.078 11.0193 32.078 16.0421C32.078 21.0648 28.0062 25.1367 22.9835 25.1367C17.9607 25.1367 13.8889 21.0648 13.8889 16.0421C13.8889 11.0193 17.9607 6.94749 22.9835 6.94749Z" fill="#BFF747"/>
<path fill-rule="evenodd" clip-rule="evenodd" d="M10.7407 0H9.72426C7.94282 0 6.48535 1.45747 6.48535 3.23891V33.0676C7.01334 32.4656 7.78743 32.0841 8.64733 32.0841H10.7407V0Z" fill="#BFF747"/>
<path fill-rule="evenodd" clip-rule="evenodd" d="M15.5919 37.1223V35.3174H12.5566V37.1223V40L13.3155 38.9048L14.0743 37.8095L14.8331 38.9048L15.5919 40V37.1223Z" fill="#BFF747"/>
<path fill-rule="evenodd" clip-rule="evenodd" d="M34.5139 32.7988H11.0978H8.64733C7.45829 32.7988 6.48535 33.7717 6.48535 34.9608C6.48535 36.1498 7.4582 37.1228 8.64733 37.1228H11.8426V35.3179H9.68237V34.6036H29.1549V35.3179H16.3064V37.1228H34.5139C33.3248 37.1228 32.3519 36.1498 32.3519 34.9608C32.3519 33.7717 33.3248 32.7988 34.5139 32.7988Z" fill="#BFF747"/>
<path d="M22.9836 5.83594C24.7457 5.83594 26.3265 7.00486 27.458 8.89482C28.5569 10.7304 29.2367 13.258 29.2367 16.0424C29.2367 18.8265 28.5569 21.3542 27.458 23.1899C26.3265 25.0798 24.7457 26.2488 22.9836 26.2488C21.2215 26.2488 19.6406 25.0798 18.5092 23.1899C17.4102 21.3542 16.7305 18.8265 16.7305 16.0424C16.7305 13.2581 17.4102 10.7305 18.5091 8.89482C19.6407 7.00486 21.2215 5.83594 22.9836 5.83594ZM26.8496 9.25865C25.8466 7.58333 24.4786 6.54709 22.9836 6.54709C21.4885 6.54709 20.1205 7.58333 19.1175 9.25865C18.082 10.9882 17.4415 13.3863 17.4415 16.0424C17.4415 18.6985 18.082 21.0964 19.1175 22.826C20.1205 24.5014 21.4885 25.5376 22.9836 25.5376C24.4786 25.5376 25.8466 24.5014 26.8496 22.826C27.8851 21.0964 28.5256 18.6985 28.5256 16.0424C28.5256 13.3862 27.885 10.9882 26.8496 9.25865Z" fill="#BFF747"/>
<path d="M22.9835 5.83594C23.6435 5.83594 24.1795 7.05211 24.5122 9.01846C24.8172 10.8214 25.0059 13.3051 25.0059 16.0424C25.0059 18.7795 24.8172 21.2633 24.5122 23.0662C24.1795 25.0325 23.6435 26.2488 22.9835 26.2488C22.3234 26.2488 21.7874 25.0325 21.4548 23.0662C21.1496 21.2633 20.9609 18.7795 20.9609 16.0424C20.9609 13.3051 21.1496 10.8214 21.4548 9.01846C21.7874 7.05211 22.3234 5.83594 22.9835 5.83594ZM23.8122 9.1351C23.5417 7.53608 23.244 6.54709 22.9835 6.54709C22.723 6.54709 22.4253 7.53608 22.1548 9.1351C21.8565 10.8973 21.6721 13.3391 21.6721 16.0424C21.6721 18.7456 21.8565 21.1873 22.1548 22.9496C22.4253 24.5485 22.723 25.5376 22.9835 25.5376C23.244 25.5376 23.5417 24.5485 23.8122 22.9496C24.1103 21.1873 24.2949 18.7456 24.2949 16.0424C24.2949 13.3391 24.1103 10.8973 23.8122 9.1351Z" fill="#BFF747"/>
<path d="M33.1901 16.0536C33.1489 17.3016 31.9284 18.4014 29.9886 19.1706C28.1412 19.9032 25.617 20.3564 22.8541 20.3564C22.5997 20.3564 22.3232 20.3514 22.026 20.3416C19.476 20.2574 17.2035 19.7864 15.565 19.0739C13.8321 18.3204 12.7773 17.2769 12.7773 16.0961C12.7773 16.0942 12.7781 16.0771 12.7797 16.0313C12.8208 14.7833 14.0413 13.6835 15.981 12.9143C17.8285 12.1817 20.3527 11.7285 23.1156 11.7285C23.3698 11.7285 23.6463 11.7336 23.9433 11.7434C26.4936 11.8275 28.766 12.2985 30.4046 13.011C32.1376 13.7646 33.1924 14.8082 33.1924 15.9889C33.1924 15.9908 33.1916 16.0078 33.1901 16.0536ZM29.7276 18.5123C31.4005 17.849 32.4508 16.9695 32.4817 16.0313C32.4821 16.0214 32.4812 16.0265 32.4812 15.9889C32.4812 15.1184 31.5883 14.2989 30.1213 13.661C28.56 12.9821 26.3801 12.5329 23.9212 12.4517C23.68 12.4437 23.4116 12.4397 23.1156 12.4397C20.438 12.4397 18.0073 12.8726 16.2421 13.5727C14.5692 14.2361 13.5189 15.1155 13.4879 16.0536C13.4877 16.0635 13.4885 16.0585 13.4885 16.0961C13.4885 16.9665 14.3813 17.786 15.8483 18.4239C17.4096 19.1029 19.5894 19.5521 22.0483 19.6333C22.2896 19.6412 22.5581 19.6453 22.8541 19.6453C25.5317 19.6453 27.9624 19.2123 29.7276 18.5123Z" fill="#BFF747"/>
</g>
<defs>
<clipPath id="clip0_6023_946">
<rect width="40" height="40" fill="white" transform="translate(0.5)"/>
</clipPath>
</defs>
</svg>
