<svg width="24" height="24" viewBox="0 0 24 24" fill="none" xmlns="http://www.w3.org/2000/svg">
<path d="M21.4209 12.6748L14.6709 19.4248C14.4596 19.6361 14.1729 19.7548 13.8741 19.7548C13.5752 19.7548 13.2885 19.6361 13.0772 19.4248C12.8658 19.2134 12.7471 18.9268 12.7471 18.6279C12.7471 18.329 12.8658 18.0424 13.0772 17.831L17.9062 13.0038H4.125C3.82663 13.0038 3.54048 12.8853 3.3295 12.6743C3.11853 12.4633 3 12.1772 3 11.8788C3 11.5805 3.11853 11.2943 3.3295 11.0833C3.54048 10.8724 3.82663 10.7538 4.125 10.7538H17.9062L13.0791 5.92383C12.8677 5.71248 12.749 5.42584 12.749 5.12695C12.749 4.82807 12.8677 4.54142 13.0791 4.33008C13.2904 4.11873 13.5771 4 13.8759 4C14.1748 4 14.4615 4.11873 14.6728 4.33008L21.4228 11.0801C21.5277 11.1847 21.6109 11.3091 21.6676 11.446C21.7243 11.5829 21.7534 11.7296 21.7532 11.8778C21.7531 12.026 21.7236 12.1727 21.6666 12.3094C21.6096 12.4462 21.5261 12.5704 21.4209 12.6748Z" fill="white"/>
</svg>
