<svg width="32" height="32" viewBox="0 0 32 32" fill="none" xmlns="http://www.w3.org/2000/svg">
<path d="M25.5 2.55C25.5 1.14375 24.3563 0 22.95 0H9.05C7.64375 0 6.5 1.14375 6.5 2.55V3.49688H25.5V2.55Z" fill="#BFF747"/>
<path d="M6.5 5.37207H25.5V7.2502H6.5V5.37207Z" fill="#BFF747"/>
<path d="M6.5 29.45C6.5 30.8563 7.64375 32 9.05 32H22.95C24.3563 32 25.5 30.8563 25.5 29.45V26H6.5V29.45ZM14.4062 27.625H17.5938C18.1112 27.625 18.5312 28.045 18.5312 28.5625C18.5312 29.08 18.1112 29.5 17.5938 29.5H14.4062C13.8888 29.5 13.4688 29.08 13.4688 28.5625C13.4688 28.045 13.8888 27.625 14.4062 27.625Z" fill="#BFF747"/>
<path d="M26.9375 9.125H5.0625C4.545 9.125 4.125 9.545 4.125 10.0625V23.1875C4.125 23.705 4.545 24.125 5.0625 24.125H26.9375C27.455 24.125 27.875 23.705 27.875 23.1875V10.0625C27.875 9.545 27.455 9.125 26.9375 9.125ZM12.6006 17.9312C12.9669 18.2969 12.9669 18.8906 12.6006 19.2569C12.4175 19.44 12.1775 19.5312 11.9375 19.5312C11.6975 19.5312 11.4575 19.44 11.2744 19.2569L9.30562 17.2881C8.94 16.9219 8.94 16.3281 9.30562 15.9625L11.2744 13.9937C11.6406 13.6275 12.2344 13.6275 12.6006 13.9937C12.9669 14.3594 12.9669 14.9531 12.6006 15.3194L11.2944 16.625L12.6006 17.9312ZM17.7856 13.4213L16.0312 20.2925C15.9108 20.7893 15.3787 21.1007 14.8906 20.9688C14.3894 20.8406 14.0862 20.33 14.2144 19.8288L15.9688 12.9575C16.0921 12.4638 16.6062 12.1499 17.1094 12.2812C17.6106 12.4094 17.9138 12.92 17.7856 13.4213ZM22.6944 17.2881L20.7256 19.2569C20.5425 19.44 20.3025 19.5312 20.0625 19.5312C19.8225 19.5312 19.5825 19.44 19.3994 19.2569C19.0338 18.8906 19.0338 18.2969 19.3994 17.9306L20.7056 16.625L19.3994 15.3194C19.0338 14.9531 19.0338 14.3594 19.3994 13.9931C19.7656 13.6275 20.3594 13.6275 20.7256 13.9931L22.6944 15.9619C23.06 16.3281 23.06 16.9219 22.6944 17.2881Z" fill="#BFF747"/>
</svg>
