<svg width="33" height="32" viewBox="0 0 33 32" fill="none" xmlns="http://www.w3.org/2000/svg">
<path fill-rule="evenodd" clip-rule="evenodd" d="M10.4017 18.0357H9.38833C9.11962 18.0376 8.8619 18.1426 8.66833 18.329C8.48035 18.5215 8.37509 18.7799 8.375 19.049V20.8268H11.4239V19.049C11.4239 18.9152 11.3974 18.7827 11.3459 18.6592C11.2944 18.5356 11.219 18.4235 11.124 18.3293C11.0289 18.2351 10.9162 18.1607 10.7922 18.1103C10.6682 18.0599 10.5355 18.0345 10.4017 18.0357Z" fill="#BFF747"/>
<path fill-rule="evenodd" clip-rule="evenodd" d="M2.27734 10.9243V26.1599C2.27969 27.2365 2.70843 28.2684 3.46973 29.0297C4.23104 29.791 5.26292 30.2197 6.33957 30.2221H26.6596C27.7362 30.2197 28.7681 29.791 29.5294 29.0297C30.2907 28.2684 30.7194 27.2365 30.7218 26.1599V10.9243H2.27734ZM13.4507 24.1243C13.4507 24.3931 13.3439 24.6508 13.1539 24.8409C12.9638 25.0309 12.7061 25.1377 12.4373 25.1377C12.1686 25.1377 11.9108 25.0309 11.7208 24.8409C11.5308 24.6508 11.424 24.3931 11.424 24.1243V22.8976H8.37512V24.1243C8.38837 24.266 8.37191 24.4088 8.32679 24.5437C8.28167 24.6787 8.20888 24.8027 8.11308 24.9079C8.01728 25.013 7.90058 25.0971 7.77045 25.1546C7.64031 25.2121 7.49961 25.2418 7.35734 25.2418C7.21508 25.2418 7.07437 25.2121 6.94424 25.1546C6.81411 25.0971 6.69741 25.013 6.60161 24.9079C6.50581 24.8027 6.43302 24.6787 6.3879 24.5437C6.34278 24.4088 6.32631 24.266 6.33957 24.1243V19.0488C6.33957 18.2401 6.66079 17.4646 7.23256 16.8929C7.80434 16.3211 8.57984 15.9999 9.38845 15.9999H10.4018C10.8028 15.9975 11.2004 16.0748 11.5713 16.2271C11.9423 16.3795 12.2794 16.604 12.5629 16.8876C12.8465 17.1712 13.071 17.5082 13.2234 17.8792C13.3758 18.2502 13.453 18.6477 13.4507 19.0488V24.1243ZM22.7218 19.8488C22.7218 20.6574 22.4006 21.4329 21.8288 22.0047C21.257 22.5764 20.4815 22.8976 19.6729 22.8976H17.5129V24.1243C17.5129 24.3931 17.4061 24.6508 17.2161 24.8409C17.0261 25.0309 16.7683 25.1377 16.4996 25.1377C16.2308 25.1377 15.9731 25.0309 15.783 24.8409C15.593 24.6508 15.4862 24.3931 15.4862 24.1243V17.0132C15.4862 16.7445 15.593 16.4867 15.783 16.2967C15.9731 16.1066 16.2308 15.9999 16.4996 15.9999H19.6907C20.0902 15.9999 20.4858 16.0789 20.8548 16.2323C21.2237 16.3857 21.5586 16.6106 21.8403 16.8939C22.122 17.1773 22.3449 17.5135 22.4962 17.8833C22.6475 18.2531 22.7241 18.6492 22.7218 19.0488V19.8488ZM26.6418 24.1243C26.655 24.266 26.6386 24.4088 26.5935 24.5437C26.5483 24.6787 26.4755 24.8027 26.3797 24.9079C26.2839 25.013 26.1672 25.0971 26.0371 25.1546C25.907 25.2121 25.7663 25.2418 25.624 25.2418C25.4817 25.2418 25.341 25.2121 25.2109 25.1546C25.0808 25.0971 24.9641 25.013 24.8683 24.9079C24.7725 24.8027 24.6997 24.6787 24.6546 24.5437C24.6094 24.4088 24.593 24.266 24.6062 24.1243V17.0132C24.63 16.7597 24.7474 16.5241 24.9357 16.3527C25.1239 16.1812 25.3694 16.0862 25.624 16.0862C25.8786 16.0862 26.1241 16.1812 26.3123 16.3527C26.5006 16.5241 26.6181 16.7597 26.6418 17.0132V24.1243Z" fill="#BFF747"/>
<path fill-rule="evenodd" clip-rule="evenodd" d="M30.7218 8.88894V5.84005C30.7194 4.76341 30.2907 3.73153 29.5294 2.97022C28.7681 2.20892 27.7362 1.78018 26.6596 1.77783H6.33957C5.26292 1.78018 4.23104 2.20892 3.46973 2.97022C2.70843 3.73153 2.27969 4.76341 2.27734 5.84005V8.88894H30.7218ZM11.424 4.82672C11.624 4.82848 11.8191 4.88939 11.9845 5.0018C12.15 5.11421 12.2785 5.27308 12.3538 5.45839C12.4292 5.6437 12.448 5.84716 12.4079 6.04314C12.3678 6.23912 12.2706 6.41884 12.1285 6.55967C11.9865 6.7005 11.8059 6.79613 11.6096 6.83452C11.4132 6.8729 11.21 6.85232 11.0253 6.77537C10.8407 6.69842 10.6829 6.56854 10.572 6.4021C10.461 6.23565 10.4018 6.04009 10.4018 5.84005C10.4018 5.70623 10.4283 5.57373 10.4798 5.4502C10.5312 5.32668 10.6067 5.21457 10.7017 5.12036C10.7968 5.02614 10.9095 4.95169 11.0335 4.90129C11.1575 4.85089 11.2902 4.82555 11.424 4.82672ZM7.3529 4.82672C7.55332 4.82672 7.74924 4.88615 7.91588 4.9975C8.08252 5.10884 8.2124 5.26711 8.2891 5.45227C8.36579 5.63743 8.38586 5.84118 8.34676 6.03775C8.30766 6.23431 8.21115 6.41487 8.06943 6.55659C7.92772 6.69831 7.74716 6.79482 7.55059 6.83392C7.35402 6.87302 7.15028 6.85295 6.96511 6.77625C6.77995 6.69956 6.62169 6.56967 6.51034 6.40303C6.399 6.23639 6.33957 6.04047 6.33957 5.84005C6.33957 5.5713 6.44633 5.31356 6.63636 5.12352C6.8264 4.93348 7.08415 4.82672 7.3529 4.82672Z" fill="#BFF747"/>
<path fill-rule="evenodd" clip-rule="evenodd" d="M19.6905 18.0357H17.5127V20.8623H19.6905C19.9592 20.8623 20.217 20.7556 20.407 20.5656C20.597 20.3755 20.7038 20.1178 20.7038 19.849V19.049C20.705 18.9156 20.6796 18.7833 20.6291 18.6598C20.5786 18.5364 20.504 18.4242 20.4097 18.3298C20.3153 18.2355 20.2031 18.1609 20.0797 18.1104C19.9562 18.0599 19.8239 18.0345 19.6905 18.0357Z" fill="#BFF747"/>
</svg>
