<svg width="39" height="38" viewBox="0 0 39 38" fill="none" xmlns="http://www.w3.org/2000/svg">
<path fill-rule="evenodd" clip-rule="evenodd" d="M10.3756 25.1269L13.502 30.5421C13.9423 31.3047 13.6786 32.2888 12.916 32.7291C12.1534 33.1694 11.1692 32.9057 10.7289 32.1431L7.19557 26.0231C8.25586 25.7266 9.31259 25.414 10.3755 25.1268L10.3756 25.1269ZM32.5116 19.4763C32.3347 19.3746 32.2736 19.1488 32.3753 18.9718C32.477 18.7949 32.7029 18.7339 32.8798 18.8356L36.2841 20.801C36.461 20.9027 36.522 21.1286 36.4203 21.3055C36.3186 21.4824 36.0928 21.5434 35.9159 21.4418L32.5116 19.4763ZM30.6923 10.6676C30.5906 10.8445 30.3647 10.9055 30.1878 10.8038C30.0109 10.7022 29.9499 10.4763 30.0515 10.2994L32.017 6.89511C32.1187 6.71817 32.3445 6.65716 32.5215 6.75884C32.6984 6.86052 32.7594 7.08637 32.6577 7.26331L30.6923 10.6676ZM33.4256 14.6965C33.2279 14.7493 33.0247 14.6318 32.9719 14.4341C32.9191 14.2364 33.0365 14.0332 33.2343 13.9804L37.0312 12.963C37.2289 12.9102 37.4321 13.0277 37.4849 13.2254C37.5378 13.4231 37.4203 13.6263 37.2226 13.6791L33.4256 14.6965ZM22.8103 5.10503C22.0545 5.30757 21.6017 6.09162 21.8043 6.84746L27.0938 26.5885C27.2964 27.3444 28.0804 27.797 28.8363 27.5946C29.5921 27.392 30.0448 26.6079 29.8423 25.8521L24.5527 6.11099C24.3503 5.35522 23.5662 4.90256 22.8103 5.10503ZM12.0814 23.9343L10.1302 16.6524C8.17303 17.2589 6.16631 17.6977 4.18674 18.2281C2.24748 18.7477 1.08596 20.7595 1.64067 22.8295C2.19538 24.8995 4.20708 26.061 6.14634 25.5414C8.12598 25.0109 10.0831 24.3877 12.0814 23.9343ZM10.8365 16.4244C16.2535 14.6021 19.7889 11.5549 21.5538 8.78004L25.9106 25.0401C22.9948 23.5195 18.4094 22.6483 12.807 23.7785L10.8365 16.4244V16.4244ZM27.3136 13.5469L29.2141 13.5637C29.3833 13.5652 29.5255 13.6754 29.5693 13.8388L30.323 16.6515C30.3667 16.8149 30.2987 16.9814 30.1529 17.0673L28.5154 18.0321L27.3136 13.5469Z" fill="#BFF747"/>
</svg>
