<svg width="64" height="64" viewBox="0 0 64 64" fill="none" xmlns="http://www.w3.org/2000/svg">
<path d="M18.0888 24.9448C17.9268 25.3018 17.9888 25.7208 18.2468 26.0168L24.3928 33.0388L21.7478 42.7368C21.6408 43.1308 21.7828 43.5498 22.1088 43.7968C22.4338 44.0438 22.8768 44.0668 23.2268 43.8578L31.9998 38.5968L40.7708 43.8578C40.9308 43.9528 41.1078 43.9998 41.2858 43.9998C41.4998 43.9998 41.7118 43.9318 41.8898 43.7968C42.2158 43.5498 42.3588 43.1308 42.2508 42.7368L39.6058 33.0388L45.7518 26.0168C46.0098 25.7218 46.0718 25.3028 45.9098 24.9448C45.7478 24.5868 45.3928 24.3578 44.9998 24.3578H36.3638L32.9138 16.5928C32.7528 16.2328 32.3958 15.9998 31.9998 15.9998C31.6038 15.9998 31.2468 16.2328 31.0858 16.5938L27.6358 24.3588H18.9998C18.6068 24.3578 18.2508 24.5878 18.0888 24.9448ZM28.2858 26.3578C28.6818 26.3578 29.0388 26.1248 29.1998 25.7638L31.9998 19.4618L34.7998 25.7638C34.9608 26.1248 35.3188 26.3578 35.7138 26.3578H42.7958L37.7468 32.1248C37.5258 32.3768 37.4468 32.7238 37.5348 33.0468L39.6668 40.8618L32.5148 36.5718C32.3568 36.4768 32.1778 36.4288 31.9998 36.4288C31.8218 36.4288 31.6438 36.4758 31.4848 36.5718L24.3328 40.8618L26.4648 33.0468C26.5528 32.7238 26.4738 32.3778 26.2528 32.1248L21.2038 26.3578H28.2858ZM61.0248 26.2048C60.8658 26.0028 60.6348 25.8708 60.3808 25.8338C60.3358 25.8278 59.9258 25.7708 59.2878 25.7708C58.8878 25.7708 58.3408 25.7958 57.7118 25.8898C59.3598 25.0168 61.1468 23.4788 61.8658 20.7918C63.3178 15.3708 58.6778 11.8258 58.4798 11.6768C58.2748 11.5228 58.0158 11.4548 57.7628 11.4848C57.6288 11.5008 55.8478 11.7378 54.0198 12.8208C54.6008 11.7738 54.9998 10.5148 54.9998 8.99976C54.9998 3.38776 49.6018 1.16376 49.3708 1.07076C49.1328 0.975762 48.8668 0.975762 48.6288 1.07076C48.3978 1.16376 42.9998 3.38776 42.9998 8.99976C42.9998 14.6118 48.3978 16.8358 48.6288 16.9288C48.7478 16.9758 48.8738 16.9998 48.9998 16.9998C49.1258 16.9998 49.2518 16.9758 49.3708 16.9288C49.4458 16.8988 50.0788 16.6348 50.8908 16.1038C50.6468 16.5838 50.4328 17.1028 50.2768 17.6858C48.8228 23.1068 53.4638 26.6528 53.6618 26.8008C53.8348 26.9308 54.0448 26.9998 54.2598 26.9998C54.2988 26.9998 54.3388 26.9978 54.3778 26.9928C54.3898 26.9918 54.4248 26.9868 54.4608 26.9808C53.3788 27.5958 52.3348 28.5128 51.5428 29.8848C48.7368 34.7448 52.3008 39.3708 52.4528 39.5648C52.4568 39.5688 52.4628 39.5718 52.4658 39.5758C50.8848 39.8788 49.4788 40.6168 48.3388 41.7568C45.5198 44.5748 45.8358 48.1018 46.2908 49.9958C42.2308 53.2178 37.1878 54.9998 31.9998 54.9998C26.8118 54.9998 21.7688 53.2178 17.7088 49.9968C18.1638 48.1028 18.4798 44.5758 15.6608 41.7578C14.5208 40.6178 13.1148 39.8798 11.5338 39.5768C11.5368 39.5728 11.5428 39.5698 11.5468 39.5658C11.6988 39.3718 15.2628 34.7458 12.4568 29.8858C11.6648 28.5138 10.6208 27.5968 9.53879 26.9818C9.57479 26.9868 9.60979 26.9918 9.62179 26.9938C9.66079 26.9978 9.70079 26.9998 9.73979 26.9998C9.95479 26.9998 10.1648 26.9308 10.3388 26.8008C10.5368 26.6528 15.1778 23.1068 13.7238 17.6858C13.5678 17.1028 13.3538 16.5838 13.1098 16.1038C13.9218 16.6348 14.5538 16.8988 14.6298 16.9288C14.7478 16.9758 14.8738 16.9998 14.9998 16.9998C15.1258 16.9998 15.2518 16.9758 15.3708 16.9288C15.6018 16.8358 20.9998 14.6118 20.9998 8.99976C20.9998 3.38776 15.6018 1.16376 15.3708 1.07076C15.1328 0.975762 14.8668 0.975762 14.6288 1.07076C14.3978 1.16376 8.99979 3.38776 8.99979 8.99976C8.99979 10.5148 9.39879 11.7738 9.97879 12.8198C8.15079 11.7368 6.36979 11.4998 6.23579 11.4838C5.97979 11.4548 5.72379 11.5228 5.51879 11.6758C5.32079 11.8238 0.680791 15.3688 2.13279 20.7908C2.85279 23.4788 4.63879 25.0158 6.28679 25.8888C5.65779 25.7948 5.11079 25.7698 4.71079 25.7698C4.07279 25.7698 3.66279 25.8268 3.61779 25.8328C3.36379 25.8698 3.13379 26.0018 2.97379 26.2038C2.82179 26.3988 -0.742208 31.0238 2.06379 35.8838C3.45179 38.2888 5.61079 39.3008 7.39979 39.7178C6.61779 39.9058 6.11179 40.1138 6.07479 40.1298C5.83879 40.2318 5.64979 40.4198 5.54979 40.6558C5.45179 40.8838 3.20679 46.2728 7.17679 50.2418C8.70579 51.7718 10.7138 52.5808 12.9838 52.5808C15.0778 52.5808 16.6948 51.8978 16.7618 51.8688C16.7828 51.8598 16.7988 51.8408 16.8198 51.8298C20.5588 54.6908 25.0258 56.4548 29.6978 56.8888L25.2938 61.2928C24.9028 61.6838 24.9028 62.3158 25.2938 62.7068C25.6848 63.0978 26.3168 63.0978 26.7078 62.7068L31.9998 57.4138L37.2928 62.7058C37.4878 62.9018 37.7438 62.9998 37.9998 62.9998C38.2558 62.9998 38.5118 62.9018 38.7068 62.7068C39.0978 62.3158 39.0978 61.6838 38.7068 61.2928L34.3028 56.8888C38.9748 56.4538 43.4418 54.6908 47.1808 51.8298C47.2018 51.8408 47.2168 51.8598 47.2388 51.8688C47.3058 51.8978 48.9238 52.5808 51.0168 52.5808C53.2868 52.5808 55.2938 51.7718 56.8238 50.2418C60.7938 46.2728 58.5488 40.8838 58.4508 40.6558C58.3498 40.4198 58.1618 40.2318 57.9258 40.1308C57.8888 40.1148 57.3828 39.9058 56.6008 39.7188C58.3898 39.3018 60.5488 38.2898 61.9368 35.8848C64.7408 31.0238 61.1778 26.3988 61.0248 26.2048ZM49.0018 14.8968C47.9478 14.3558 44.9998 12.5268 44.9998 8.99976C44.9998 5.45176 47.9338 3.64176 48.9968 3.10276C50.0518 3.64376 52.9998 5.47276 52.9998 8.99976C52.9998 12.5468 50.0688 14.3558 49.0018 14.8968ZM52.2078 18.2028C53.1258 14.7758 56.4278 13.7868 57.5948 13.5408C58.4738 14.3358 60.8488 16.8658 59.9358 20.2728C59.0178 23.6988 55.7178 24.6888 54.5478 24.9348C53.6688 24.1398 51.2948 21.6098 52.2078 18.2028ZM14.9968 3.10276C16.0518 3.64376 18.9998 5.47276 18.9998 8.99976C18.9998 12.5468 16.0688 14.3558 15.0018 14.8968C13.9478 14.3558 10.9998 12.5268 10.9998 8.99976C10.9998 5.45176 13.9338 3.64176 14.9968 3.10276ZM4.06379 20.2728C3.14579 16.8448 5.51079 14.3378 6.39979 13.5428C7.55779 13.7928 10.8788 14.7958 11.7918 18.2028C12.7108 21.6318 10.3438 24.1388 9.45479 24.9358C8.28679 24.6898 4.98279 23.7018 4.06379 20.2728ZM3.79679 34.8848C2.02179 31.8128 3.65779 28.7798 4.30979 27.7798C4.42379 27.7738 4.55879 27.7698 4.71079 27.7698C6.28479 27.7698 9.15979 28.1748 10.7248 30.8848C12.4988 33.9568 10.8638 36.9898 10.2118 37.9898C10.0978 37.9958 9.96279 37.9998 9.81079 37.9998C8.23579 37.9998 5.35979 37.5948 3.79679 34.8848ZM8.59079 48.8278C6.08179 46.3198 6.87479 42.9678 7.24579 41.8328C7.75679 41.6698 8.72579 41.4188 9.85379 41.4188C11.6058 41.4188 13.0828 42.0078 14.2468 43.1708C16.7558 45.6788 15.9618 49.0308 15.5908 50.1668C15.0798 50.3298 14.1118 50.5808 12.9838 50.5808C11.2308 50.5808 9.75279 49.9908 8.59079 48.8278ZM55.4088 48.8278C54.2468 49.9908 52.7678 50.5808 51.0158 50.5808C49.8858 50.5808 48.9178 50.3298 48.4088 50.1668C48.0368 49.0288 47.2448 45.6788 49.7528 43.1708C50.9158 42.0078 52.3938 41.4188 54.1458 41.4188C55.2738 41.4188 56.2418 41.6688 56.7508 41.8318C57.1138 42.9638 57.8998 46.3368 55.4088 48.8278ZM60.2028 34.8848C58.6398 37.5948 55.7638 37.9998 54.1888 37.9998C54.0368 37.9998 53.9018 37.9958 53.7878 37.9898C53.1348 36.9878 51.5018 33.9558 53.2748 30.8848C54.8388 28.1748 57.7138 27.7698 59.2888 27.7698C59.4398 27.7698 59.5738 27.7738 59.6868 27.7788C60.3308 28.7778 61.9648 31.8328 60.2028 34.8848Z" fill="#BFF747"/>
</svg>
