<svg width="64" height="64" viewBox="0 0 64 64" fill="none" xmlns="http://www.w3.org/2000/svg">
<path d="M47.55 36.5676L37.441 34.2226V31.2631C40.0254 29.1716 41.9098 26.3412 42.8425 23.1501L44.102 22.8591C44.9573 22.665 45.7209 22.1852 46.2669 21.4989C46.8129 20.8125 47.1087 19.9606 47.1055 19.0836V18.6741C47.1046 17.9119 46.8014 17.1811 46.2624 16.6422C45.7234 16.1032 44.9927 15.8 44.2305 15.7991H43.75V10.6536C43.7475 8.43315 42.8643 6.30439 41.2942 4.73432C39.7242 3.16425 37.5954 2.28108 35.375 2.27856H23.284C23.1667 2.2785 23.0505 2.30204 22.9425 2.34779C22.8345 2.39354 22.7367 2.46056 22.6551 2.54487C22.5736 2.62917 22.5098 2.72903 22.4676 2.8385C22.4253 2.94796 22.4056 3.06481 22.4095 3.18206C22.4772 4.52747 22.8987 5.83119 23.6315 6.96156L23.5075 7.02306C22.5266 7.50695 21.7012 8.25652 21.1253 9.18644C20.5494 10.1164 20.2461 11.1893 20.25 12.2831V15.8001H19.7705C19.0083 15.801 18.2776 16.1042 17.7386 16.6432C17.1996 17.1821 16.8964 17.9129 16.8955 18.6751V19.0846C16.8929 19.9613 17.1891 20.8128 17.7353 21.4986C18.2814 22.1845 19.0449 22.6638 19.9 22.8576L21.1595 23.1486C22.0915 26.3402 23.9754 29.1713 26.5595 31.2636V34.2226L16.45 36.5676C14.934 36.9132 13.5808 37.7647 12.6133 38.982C11.6458 40.1992 11.1216 41.7097 11.127 43.2646V60.8466C11.127 61.0786 11.2192 61.3012 11.3833 61.4653C11.5474 61.6294 11.7699 61.7216 12.002 61.7216C12.2341 61.7216 12.4566 61.6294 12.6207 61.4653C12.7848 61.3012 12.877 61.0786 12.877 60.8466V43.2646C12.8725 42.1055 13.2629 40.9794 13.984 40.0719C14.7051 39.1644 15.7138 38.5296 16.844 38.2721L19.494 37.6571L26.733 50.5146C25.951 51.4559 25.4359 52.5899 25.2416 53.7982C25.0473 55.0065 25.1808 56.2447 25.6283 57.3838C26.0757 58.5229 26.8207 59.521 27.7854 60.274C28.7502 61.0269 29.8994 61.5072 31.113 61.6646C31.4064 61.7014 31.7018 61.7199 31.9975 61.7201C33.2972 61.7242 34.571 61.3572 35.6693 60.6622C36.7675 59.9672 37.6446 58.9732 38.1974 57.7969C38.7501 56.6206 38.9556 55.311 38.7896 54.0219C38.6237 52.7329 38.0932 51.518 37.2605 50.5201L44.5045 37.6571L47.1545 38.2721C48.2846 38.5296 49.2934 39.1644 50.0145 40.0719C50.7356 40.9794 51.126 42.1055 51.1215 43.2646V60.8466C51.1215 61.0786 51.2137 61.3012 51.3778 61.4653C51.5419 61.6294 51.7644 61.7216 51.9965 61.7216C52.2286 61.7216 52.4511 61.6294 52.6152 61.4653C52.7793 61.3012 52.8715 61.0786 52.8715 60.8466V43.2646C52.877 41.7099 52.353 40.1996 51.3858 38.9824C50.4185 37.7652 49.0657 36.9135 47.55 36.5676ZM32 47.1246L25.841 36.1851L26.9695 35.9236C27.4909 36.7812 28.2325 37.4836 29.1171 37.9579C30.0017 38.4321 30.9971 38.661 32 38.6206C33.0029 38.661 33.9983 38.4321 34.8829 37.9579C35.7675 37.4836 36.5091 36.7812 37.0305 35.9236L38.159 36.1851L32 47.1246ZM32 33.3671C33.2865 33.366 34.5535 33.0531 35.6925 32.4551V34.7376C35.3488 35.4118 34.8172 35.972 34.1619 36.3505C33.5066 36.729 32.7557 36.9097 32 36.8706C31.2442 36.9098 30.4932 36.7292 29.8379 36.3505C29.1825 35.9719 28.651 35.4115 28.3075 34.7371V32.4556C29.4466 33.0533 30.7136 33.366 32 33.3671ZM45.3555 18.6726V19.0821C45.3571 19.563 45.1949 20.0301 44.8955 20.4065C44.5961 20.7828 44.1774 21.046 43.7085 21.1526L43.3195 21.2426C43.5539 20.0238 43.6897 18.7881 43.7255 17.5476H44.2305C44.5287 17.548 44.8147 17.6666 45.0256 17.8775C45.2364 18.0884 45.3551 18.3743 45.3555 18.6726ZM24.287 8.59006L25.4745 8.00006C25.6086 7.93348 25.7233 7.83358 25.8078 7.70993C25.8922 7.58629 25.9434 7.44304 25.9566 7.29391C25.9698 7.14478 25.9445 6.99476 25.8831 6.85821C25.8217 6.72166 25.7263 6.60317 25.606 6.51406C24.7965 5.91406 24.437 4.81406 24.2795 4.02956H35.3755C37.1317 4.03155 38.8155 4.73005 40.0574 5.97185C41.2992 7.21365 41.9979 8.89733 42 10.6536V15.3631L41.36 15.0981C41.063 14.9756 40.8091 14.7676 40.6305 14.5005C40.4519 14.2335 40.3567 13.9193 40.357 13.5981V12.6656C40.3569 12.4335 40.2646 12.2111 40.1006 12.047C39.9365 11.8829 39.714 11.7907 39.482 11.7906H24.5175C24.2855 11.7907 24.063 11.8829 23.8989 12.047C23.7349 12.2111 23.6426 12.4335 23.6425 12.6656V13.5966C23.6428 13.9178 23.5476 14.232 23.369 14.499C23.1904 14.7661 22.9365 14.9741 22.6395 15.0966L22 15.3631V12.2831C21.9971 11.5151 22.2099 10.7617 22.6142 10.1088C23.0186 9.45589 23.5982 8.92966 24.287 8.59006ZM20.2915 21.1526C19.8225 21.046 19.4039 20.7828 19.1045 20.4065C18.8051 20.0301 18.6429 19.563 18.6445 19.0821V18.6726C18.6449 18.3743 18.7635 18.0884 18.9744 17.8775C19.1853 17.6666 19.4712 17.548 19.7695 17.5476H20.2745C20.3103 18.7881 20.4461 20.0238 20.6805 21.2426L20.2915 21.1526ZM22.006 17.2526L23.3095 16.7126C23.9268 16.4581 24.4545 16.0258 24.8255 15.4705C25.1964 14.9153 25.3938 14.2623 25.3925 13.5946V13.5386H38.6075V13.5946C38.6062 14.2623 38.8036 14.9153 39.1745 15.4705C39.5454 16.0258 40.0731 16.4581 40.6905 16.7126L41.994 17.2526C41.822 24.5666 38.4235 28.4851 35.5605 30.4951C34.5165 31.2247 33.2736 31.6159 32 31.6159C30.7264 31.6159 29.4835 31.2247 28.4395 30.4951C25.5765 28.4871 22.1775 24.5686 22.006 17.2546V17.2526ZM24.0645 36.5951L30.587 48.1801C29.6759 48.3733 28.8145 48.7524 28.0565 49.2936L21.2715 37.2436L24.0645 36.5951ZM35.6025 58.4771C35.0101 59.0696 34.2808 59.5069 33.479 59.7501C32.6772 59.9934 31.8279 60.0351 31.0061 59.8717C30.1844 59.7082 29.4156 59.3446 28.768 58.813C28.1204 58.2814 27.6139 57.5983 27.2934 56.8241C26.9729 56.05 26.8483 55.2088 26.9306 54.375C27.013 53.5412 27.2997 52.7406 27.7654 52.0441C28.2311 51.3476 28.8615 50.7767 29.6005 50.3821C30.3396 49.9874 31.1646 49.7812 32.0025 49.7816C32.2238 49.7815 32.4449 49.7954 32.6645 49.8231C33.6073 49.9473 34.4964 50.3329 35.2314 50.9363C35.9664 51.5396 36.5178 52.3366 36.8234 53.2371C37.1289 54.1376 37.1762 55.1057 36.9601 56.0317C36.744 56.9578 36.273 57.8048 35.6005 58.4771H35.6025ZM35.9435 49.2931C35.1863 48.7509 34.3253 48.371 33.4145 48.1771L39.9355 36.5971L42.7285 37.2471L35.9435 49.2931Z" fill="#BFF747"/>
<path d="M19.3906 48.0332C19.1586 48.0333 18.9361 48.1256 18.7721 48.2896C18.608 48.4537 18.5158 48.6762 18.5156 48.9082V60.8467C18.5156 61.0788 18.6078 61.3013 18.7719 61.4654C18.936 61.6295 19.1586 61.7217 19.3906 61.7217C19.6227 61.7217 19.8452 61.6295 20.0093 61.4654C20.1734 61.3013 20.2656 61.0788 20.2656 60.8467V48.9082C20.2656 48.6761 20.1734 48.4536 20.0093 48.2895C19.8452 48.1254 19.6227 48.0332 19.3906 48.0332Z" fill="#BFF747"/>
<path d="M44.6094 48.0332C44.3773 48.0332 44.1547 48.1254 43.9907 48.2895C43.8266 48.4536 43.7344 48.6761 43.7344 48.9082V60.8467C43.7344 61.0788 43.8266 61.3013 43.9907 61.4654C44.1547 61.6295 44.3773 61.7217 44.6094 61.7217C44.8414 61.7217 45.064 61.6295 45.2281 61.4654C45.3922 61.3013 45.4844 61.0788 45.4844 60.8467V48.9082C45.4842 48.6762 45.392 48.4537 45.2279 48.2896C45.0639 48.1256 44.8414 48.0333 44.6094 48.0332Z" fill="#BFF747"/>
<path d="M28.3906 25.9182C28.3906 26.1503 28.4828 26.3728 28.6469 26.5369C28.811 26.701 29.0336 26.7932 29.2656 26.7932H34.7346C34.9667 26.7932 35.1892 26.701 35.3533 26.5369C35.5174 26.3728 35.6096 26.1503 35.6096 25.9182C35.6096 25.6861 35.5174 25.4636 35.3533 25.2995C35.1892 25.1354 34.9667 25.0432 34.7346 25.0432H29.2656C29.0336 25.0432 28.811 25.1354 28.6469 25.2995C28.4828 25.4636 28.3906 25.6861 28.3906 25.9182Z" fill="#BFF747"/>
<path d="M27.9998 19.5213C28.662 19.5213 29.1988 18.9845 29.1988 18.3223C29.1988 17.6601 28.662 17.1233 27.9998 17.1233C27.3376 17.1233 26.8008 17.6601 26.8008 18.3223C26.8008 18.9845 27.3376 19.5213 27.9998 19.5213Z" fill="#BFF747"/>
<path d="M35.9998 19.5213C36.662 19.5213 37.1988 18.9845 37.1988 18.3223C37.1988 17.6601 36.662 17.1233 35.9998 17.1233C35.3376 17.1233 34.8008 17.6601 34.8008 18.3223C34.8008 18.9845 35.3376 19.5213 35.9998 19.5213Z" fill="#BFF747"/>
<path d="M32.8002 51.4178C32.2131 51.2828 31.6013 51.2992 31.0223 51.4656C30.4433 51.6319 29.9161 51.9426 29.4902 52.3686C29.0642 52.7946 28.7535 53.3219 28.5873 53.9009C28.421 54.4799 28.4046 55.0917 28.5397 55.6788C28.6853 56.3283 29.0125 56.923 29.4832 57.3936C29.9539 57.8642 30.5487 58.1913 31.1982 58.3368C31.4595 58.3951 31.7264 58.4246 31.9942 58.4248C32.8653 58.4245 33.7058 58.1039 34.3559 57.5241C35.0059 56.9444 35.4202 56.1458 35.5197 55.2805C35.6192 54.4151 35.3971 53.5434 34.8957 52.8311C34.3942 52.1189 33.6484 51.6159 32.8002 51.4178ZM33.2707 56.1488C33.053 56.3671 32.7829 56.5258 32.4863 56.6098C32.1897 56.6937 31.8765 56.7001 31.5767 56.6283C31.2537 56.5527 30.9583 56.3883 30.7239 56.1536C30.4895 55.9189 30.3254 55.6233 30.2502 55.3003C30.1783 55.0004 30.1846 54.6871 30.2686 54.3904C30.3525 54.0937 30.5113 53.8235 30.7297 53.6058C30.8958 53.438 31.0938 53.305 31.3119 53.2146C31.5301 53.1242 31.7641 53.0782 32.0002 53.0793C32.143 53.0795 32.2853 53.0953 32.4247 53.1263C32.7481 53.2016 33.0439 53.366 33.2787 53.6008C33.5135 53.8356 33.6778 54.1314 33.7532 54.4548C33.825 54.755 33.8185 55.0686 33.7342 55.3655C33.6499 55.6624 33.4906 55.9327 33.2717 56.1503L33.2707 56.1488Z" fill="#BFF747"/>
</svg>
