<svg width="64" height="64" viewBox="0 0 64 64" fill="none" xmlns="http://www.w3.org/2000/svg">
<path d="M52.9304 12.367C53.0514 12.059 53.0124 11.711 52.8264 11.437C52.6404 11.164 52.3304 11 51.9994 11H39.5164L41.7524 8.445C42.0104 8.15 42.0724 7.731 41.9094 7.373C41.7474 7.016 41.3924 6.786 40.9994 6.786H35.2204L32.9134 1.594C32.7524 1.233 32.3954 1 31.9994 1C31.6044 1 31.2464 1.233 31.0854 1.594L28.7784 6.786H22.9994C22.6064 6.786 22.2504 7.015 22.0884 7.373C21.9264 7.731 21.9884 8.149 22.2464 8.445L24.4834 11H11.9994C11.6684 11 11.3594 11.164 11.1724 11.437C10.9864 11.711 10.9474 12.059 11.0684 12.367L23.9994 45.189V54H20.9994C20.5534 54 20.1604 54.296 20.0384 54.725L18.0384 61.725C17.9524 62.027 18.0124 62.351 18.2014 62.602C18.3904 62.853 18.6854 63 18.9994 63H44.9994H45.0194C45.5724 63 46.0194 62.552 46.0194 62C46.0194 61.835 45.9794 61.679 45.9094 61.542L43.9624 54.725C43.8384 54.296 43.4454 54 42.9994 54H39.9994V45.19L52.9304 12.367ZM29.4284 8.786C29.8234 8.786 30.1814 8.553 30.3424 8.192L31.9994 4.463L33.6554 8.192C33.8154 8.553 34.1744 8.786 34.5694 8.786H38.7954L35.7474 12.269C35.5264 12.521 35.4474 12.868 35.5354 13.191L36.8094 17.863L32.5134 15.287C32.3554 15.192 32.1774 15.144 31.9994 15.144C31.8214 15.144 31.6434 15.191 31.4854 15.287L27.1904 17.863L28.4644 13.191C28.5524 12.868 28.4724 12.522 28.2524 12.269L25.2044 8.786H29.4284ZM26.2334 13L26.3934 13.183L24.6054 19.737C24.4984 20.131 24.6414 20.55 24.9664 20.797C25.2914 21.044 25.7354 21.069 26.0844 20.858L31.9994 17.311L37.9144 20.858C38.0734 20.953 38.2514 21 38.4294 21C38.6434 21 38.8554 20.932 39.0334 20.797C39.3594 20.55 39.5024 20.131 39.3944 19.737L37.6074 13.182L37.7664 13H50.5314L38.3184 44H25.6804L13.4684 13H26.2334ZM43.6734 61H20.3254L21.7544 56H42.2464L43.6734 61ZM25.9994 54V46H37.9994V54H25.9994ZM27.9994 29C27.9994 28.448 28.4474 28 28.9994 28H34.9994C35.5524 28 35.9994 28.448 35.9994 29C35.9994 29.552 35.5524 30 34.9994 30H28.9994C28.4474 30 27.9994 29.552 27.9994 29ZM27.9994 35C27.9994 34.448 28.4474 34 28.9994 34H34.9994C35.5524 34 35.9994 34.448 35.9994 35C35.9994 35.552 35.5524 36 34.9994 36H28.9994C28.4474 36 27.9994 35.552 27.9994 35Z" fill="#BFF747"/>
</svg>
