<svg width="43" height="36" viewBox="0 0 43 36" fill="none" xmlns="http://www.w3.org/2000/svg">
<path fill-rule="evenodd" clip-rule="evenodd" d="M9.66361 1.18526L21.5 0L33.3363 1.18526L42.4999 12.837L21.5 35.9999L0.5 12.837L9.66361 1.18526Z" fill="#FDB300"/>
<path d="M9.00594 12.8369L21.4999 35.9999L0.5 12.8369H9.00594ZM33.9941 12.8369L21.5001 35.9999L42.5 12.8369" fill="#EA6C00"/>
<path fill-rule="evenodd" clip-rule="evenodd" d="M9.00586 12.8369H33.9937L21.4998 35.9999" fill="#FDAD00"/>
<path d="M21.4998 0L9.66343 1.18507L9.00586 12.8369L21.4998 0ZM21.5 0L33.3363 1.18507L33.9939 12.8369" fill="#FDD231"/>
<path d="M42.5 12.8369L33.3365 1.18506L33.9941 12.8369H42.5ZM0.5 12.8369L9.66352 1.18506L9.00594 12.8369" fill="#FDAD00"/>
<path fill-rule="evenodd" clip-rule="evenodd" d="M21.4998 0L9.00586 12.8369H33.9937" fill="#FEEEB7"/>
</svg>
